<mxfile host="app.diagrams.net" agent="Mozilla/5.0 (Macintosh; Intel Mac OS X 10_15_7) AppleWebKit/537.36 (KHTML, like Gecko) Chrome/122.0.0.0 YaBrowser/24.4.0.0 Safari/537.36" version="24.7.17" pages="2">
  <diagram name="Страница — 1" id="jwcBpFGIOUL9wP4Ps4TV">
    <mxGraphModel dx="1272" dy="760" grid="0" gridSize="10" guides="1" tooltips="1" connect="1" arrows="1" fold="1" page="0" pageScale="1" pageWidth="827" pageHeight="1169" math="0" shadow="0">
      <root>
        <mxCell id="0" />
        <mxCell id="1" parent="0" />
        <mxCell id="7-nGlA69CREyWSuuiEG5-9" value="" style="rounded=0;whiteSpace=wrap;html=1;fillColor=#e5f0ff;strokeColor=#6c8ebf;" parent="1" vertex="1">
          <mxGeometry x="430" y="80" width="460" height="490" as="geometry" />
        </mxCell>
        <mxCell id="7-nGlA69CREyWSuuiEG5-21" style="edgeStyle=orthogonalEdgeStyle;rounded=0;orthogonalLoop=1;jettySize=auto;html=1;entryX=0;entryY=0.5;entryDx=0;entryDy=0;curved=1;endArrow=none;endFill=0;" parent="1" source="7-nGlA69CREyWSuuiEG5-1" target="7-nGlA69CREyWSuuiEG5-10" edge="1">
          <mxGeometry relative="1" as="geometry" />
        </mxCell>
        <mxCell id="7-nGlA69CREyWSuuiEG5-22" style="edgeStyle=orthogonalEdgeStyle;rounded=0;orthogonalLoop=1;jettySize=auto;html=1;endArrow=none;endFill=0;curved=1;" parent="1" source="7-nGlA69CREyWSuuiEG5-1" target="7-nGlA69CREyWSuuiEG5-17" edge="1">
          <mxGeometry relative="1" as="geometry" />
        </mxCell>
        <mxCell id="7-nGlA69CREyWSuuiEG5-24" style="edgeStyle=orthogonalEdgeStyle;rounded=0;orthogonalLoop=1;jettySize=auto;html=1;entryX=0;entryY=0.5;entryDx=0;entryDy=0;endArrow=none;endFill=0;curved=1;" parent="1" source="7-nGlA69CREyWSuuiEG5-1" target="7-nGlA69CREyWSuuiEG5-14" edge="1">
          <mxGeometry relative="1" as="geometry" />
        </mxCell>
        <mxCell id="7-nGlA69CREyWSuuiEG5-25" style="edgeStyle=orthogonalEdgeStyle;rounded=0;orthogonalLoop=1;jettySize=auto;html=1;entryX=0;entryY=0.5;entryDx=0;entryDy=0;curved=1;endArrow=none;endFill=0;" parent="1" source="7-nGlA69CREyWSuuiEG5-1" target="7-nGlA69CREyWSuuiEG5-15" edge="1">
          <mxGeometry relative="1" as="geometry" />
        </mxCell>
        <mxCell id="7-nGlA69CREyWSuuiEG5-1" value="User" style="shape=umlActor;verticalLabelPosition=bottom;verticalAlign=top;html=1;outlineConnect=0;" parent="1" vertex="1">
          <mxGeometry x="350" y="200" width="30" height="60" as="geometry" />
        </mxCell>
        <mxCell id="7-nGlA69CREyWSuuiEG5-32" style="edgeStyle=orthogonalEdgeStyle;rounded=0;orthogonalLoop=1;jettySize=auto;html=1;entryX=0;entryY=0.5;entryDx=0;entryDy=0;curved=1;endArrow=none;endFill=0;" parent="1" source="7-nGlA69CREyWSuuiEG5-6" target="7-nGlA69CREyWSuuiEG5-16" edge="1">
          <mxGeometry relative="1" as="geometry" />
        </mxCell>
        <mxCell id="7-nGlA69CREyWSuuiEG5-33" style="edgeStyle=orthogonalEdgeStyle;rounded=0;orthogonalLoop=1;jettySize=auto;html=1;exitX=0.5;exitY=0;exitDx=0;exitDy=0;exitPerimeter=0;curved=1;endArrow=block;endFill=0;" parent="1" edge="1">
          <mxGeometry relative="1" as="geometry">
            <mxPoint x="375" y="447" as="sourcePoint" />
            <mxPoint x="360" y="289" as="targetPoint" />
            <Array as="points">
              <mxPoint x="375" y="355" />
              <mxPoint x="361" y="355" />
              <mxPoint x="361" y="289" />
            </Array>
          </mxGeometry>
        </mxCell>
        <mxCell id="7-nGlA69CREyWSuuiEG5-36" style="edgeStyle=orthogonalEdgeStyle;rounded=0;orthogonalLoop=1;jettySize=auto;html=1;entryX=0;entryY=0.5;entryDx=0;entryDy=0;endArrow=none;endFill=0;curved=1;" parent="1" source="7-nGlA69CREyWSuuiEG5-6" target="7-nGlA69CREyWSuuiEG5-35" edge="1">
          <mxGeometry relative="1" as="geometry" />
        </mxCell>
        <mxCell id="7-nGlA69CREyWSuuiEG5-6" value="Admin" style="shape=umlActor;verticalLabelPosition=bottom;verticalAlign=top;html=1;outlineConnect=0;" parent="1" vertex="1">
          <mxGeometry x="360" y="450" width="30" height="60" as="geometry" />
        </mxCell>
        <mxCell id="7-nGlA69CREyWSuuiEG5-10" value="CRUD B&lt;span style=&quot;background-color: initial;&quot;&gt;ackup&lt;/span&gt;" style="ellipse;whiteSpace=wrap;html=1;" parent="1" vertex="1">
          <mxGeometry x="460" y="120" width="120" height="50" as="geometry" />
        </mxCell>
        <mxCell id="7-nGlA69CREyWSuuiEG5-27" style="edgeStyle=orthogonalEdgeStyle;rounded=0;orthogonalLoop=1;jettySize=auto;html=1;entryX=0;entryY=0.5;entryDx=0;entryDy=0;curved=1;startArrow=classic;startFill=1;endArrow=none;endFill=0;dashed=1;" parent="1" source="7-nGlA69CREyWSuuiEG5-14" target="7-nGlA69CREyWSuuiEG5-26" edge="1">
          <mxGeometry relative="1" as="geometry" />
        </mxCell>
        <mxCell id="7-nGlA69CREyWSuuiEG5-28" value="&amp;lt;&amp;lt;extend&amp;gt;&amp;gt;" style="edgeLabel;html=1;align=center;verticalAlign=middle;resizable=0;points=[];" parent="7-nGlA69CREyWSuuiEG5-27" vertex="1" connectable="0">
          <mxGeometry x="-0.1368" y="1" relative="1" as="geometry">
            <mxPoint as="offset" />
          </mxGeometry>
        </mxCell>
        <mxCell id="7-nGlA69CREyWSuuiEG5-14" value="AppControl" style="ellipse;whiteSpace=wrap;html=1;" parent="1" vertex="1">
          <mxGeometry x="465" y="233" width="120" height="50" as="geometry" />
        </mxCell>
        <mxCell id="7-nGlA69CREyWSuuiEG5-15" value="RestoreVersion" style="ellipse;whiteSpace=wrap;html=1;" parent="1" vertex="1">
          <mxGeometry x="462" y="318" width="120" height="50" as="geometry" />
        </mxCell>
        <mxCell id="7-nGlA69CREyWSuuiEG5-16" value="UpdateSettings" style="ellipse;whiteSpace=wrap;html=1;" parent="1" vertex="1">
          <mxGeometry x="500" y="430" width="120" height="50" as="geometry" />
        </mxCell>
        <mxCell id="7-nGlA69CREyWSuuiEG5-19" style="edgeStyle=orthogonalEdgeStyle;rounded=0;orthogonalLoop=1;jettySize=auto;html=1;entryX=0;entryY=0.5;entryDx=0;entryDy=0;dashed=1;" parent="1" source="7-nGlA69CREyWSuuiEG5-17" target="7-nGlA69CREyWSuuiEG5-18" edge="1">
          <mxGeometry relative="1" as="geometry" />
        </mxCell>
        <mxCell id="7-nGlA69CREyWSuuiEG5-20" value="&amp;lt;&amp;lt;include&amp;gt;&amp;gt;" style="edgeLabel;html=1;align=center;verticalAlign=middle;resizable=0;points=[];" parent="7-nGlA69CREyWSuuiEG5-19" vertex="1" connectable="0">
          <mxGeometry x="-0.2235" relative="1" as="geometry">
            <mxPoint as="offset" />
          </mxGeometry>
        </mxCell>
        <mxCell id="7-nGlA69CREyWSuuiEG5-17" value="SetAutomaticBackup" style="ellipse;whiteSpace=wrap;html=1;" parent="1" vertex="1">
          <mxGeometry x="610" y="160" width="120" height="50" as="geometry" />
        </mxCell>
        <mxCell id="7-nGlA69CREyWSuuiEG5-18" value="SetTimeScheduler" style="ellipse;whiteSpace=wrap;html=1;" parent="1" vertex="1">
          <mxGeometry x="730" y="110" width="120" height="50" as="geometry" />
        </mxCell>
        <mxCell id="7-nGlA69CREyWSuuiEG5-26" value="CheckStatus" style="ellipse;whiteSpace=wrap;html=1;" parent="1" vertex="1">
          <mxGeometry x="710" y="203" width="120" height="50" as="geometry" />
        </mxCell>
        <mxCell id="7-nGlA69CREyWSuuiEG5-30" style="edgeStyle=orthogonalEdgeStyle;rounded=0;orthogonalLoop=1;jettySize=auto;html=1;entryX=1;entryY=1;entryDx=0;entryDy=0;curved=1;dashed=1;" parent="1" source="7-nGlA69CREyWSuuiEG5-29" target="7-nGlA69CREyWSuuiEG5-14" edge="1">
          <mxGeometry relative="1" as="geometry" />
        </mxCell>
        <mxCell id="7-nGlA69CREyWSuuiEG5-31" value="&amp;lt;&amp;lt;extend&amp;gt;&amp;gt;" style="edgeLabel;html=1;align=center;verticalAlign=middle;resizable=0;points=[];" parent="7-nGlA69CREyWSuuiEG5-30" vertex="1" connectable="0">
          <mxGeometry x="0.2482" y="6" relative="1" as="geometry">
            <mxPoint as="offset" />
          </mxGeometry>
        </mxCell>
        <mxCell id="7-nGlA69CREyWSuuiEG5-29" value="SelectVersion" style="ellipse;whiteSpace=wrap;html=1;" parent="1" vertex="1">
          <mxGeometry x="664" y="279" width="120" height="50" as="geometry" />
        </mxCell>
        <mxCell id="7-nGlA69CREyWSuuiEG5-34" value="&lt;b&gt;ASDs&lt;/b&gt;" style="text;html=1;align=center;verticalAlign=middle;resizable=0;points=[];autosize=1;strokeColor=none;fillColor=none;" parent="1" vertex="1">
          <mxGeometry x="620" y="82" width="50" height="26" as="geometry" />
        </mxCell>
        <mxCell id="7-nGlA69CREyWSuuiEG5-35" value="AddUser" style="ellipse;whiteSpace=wrap;html=1;" parent="1" vertex="1">
          <mxGeometry x="480" y="490" width="120" height="50" as="geometry" />
        </mxCell>
        <mxCell id="OpT44ivr1itjYhDXKM9Q-1" value="&lt;span style=&quot;color: rgb(32, 33, 34); font-family: sans-serif; font-size: 16px; font-style: normal; font-variant-ligatures: normal; font-variant-caps: normal; letter-spacing: normal; orphans: 2; text-align: start; text-indent: 0px; text-transform: none; widows: 2; word-spacing: 0px; -webkit-text-stroke-width: 0px; white-space: normal; background-color: rgb(255, 255, 255); text-decoration-thickness: initial; text-decoration-style: initial; text-decoration-color: initial;&quot;&gt;CRUD:&amp;nbsp;create, read, update, and delete&amp;nbsp;backup of application&lt;/span&gt;&lt;div&gt;&lt;font face=&quot;sans-serif&quot; color=&quot;#202122&quot;&gt;&lt;span style=&quot;font-size: 16px;&quot;&gt;&lt;br&gt;&lt;/span&gt;&lt;/font&gt;&lt;/div&gt;&lt;div&gt;&lt;font face=&quot;sans-serif&quot; color=&quot;#202122&quot;&gt;&lt;span style=&quot;font-size: 16px;&quot;&gt;&lt;br&gt;&lt;/span&gt;&lt;/font&gt;&lt;div&gt;&lt;span style=&quot;color: rgb(32, 33, 34); font-family: sans-serif; font-size: 16px; font-style: normal; font-variant-ligatures: normal; font-variant-caps: normal; letter-spacing: normal; orphans: 2; text-align: start; text-indent: 0px; text-transform: none; widows: 2; word-spacing: 0px; -webkit-text-stroke-width: 0px; white-space: normal; background-color: rgb(255, 255, 255); text-decoration-thickness: initial; text-decoration-style: initial; text-decoration-color: initial;&quot;&gt;&lt;br&gt;&lt;/span&gt;&lt;/div&gt;&lt;div&gt;&lt;b style=&quot;color: rgb(32, 33, 34); font-family: sans-serif; font-size: 16px; font-style: normal; font-variant-ligatures: normal; font-variant-caps: normal; letter-spacing: normal; orphans: 2; text-align: start; text-indent: 0px; text-transform: none; widows: 2; word-spacing: 0px; -webkit-text-stroke-width: 0px; white-space: normal; background-color: rgb(255, 255, 255); text-decoration-thickness: initial; text-decoration-style: initial; text-decoration-color: initial;&quot;&gt;&lt;br&gt;&lt;/b&gt;&lt;/div&gt;&lt;/div&gt;" style="text;whiteSpace=wrap;html=1;" parent="1" vertex="1">
          <mxGeometry x="430" y="575" width="329" height="276.29" as="geometry" />
        </mxCell>
        <mxCell id="K7xf-FcPWN6fgvW8ipGl-7" style="edgeStyle=orthogonalEdgeStyle;rounded=0;orthogonalLoop=1;jettySize=auto;html=1;entryX=1;entryY=0.5;entryDx=0;entryDy=0;endArrow=none;endFill=0;curved=1;" edge="1" parent="1" source="K7xf-FcPWN6fgvW8ipGl-1" target="K7xf-FcPWN6fgvW8ipGl-4">
          <mxGeometry relative="1" as="geometry" />
        </mxCell>
        <mxCell id="K7xf-FcPWN6fgvW8ipGl-8" style="edgeStyle=orthogonalEdgeStyle;rounded=0;orthogonalLoop=1;jettySize=auto;html=1;entryX=1;entryY=0.5;entryDx=0;entryDy=0;endArrow=none;endFill=0;curved=1;" edge="1" parent="1" source="K7xf-FcPWN6fgvW8ipGl-1" target="K7xf-FcPWN6fgvW8ipGl-5">
          <mxGeometry relative="1" as="geometry" />
        </mxCell>
        <mxCell id="K7xf-FcPWN6fgvW8ipGl-1" value="Unauthorized&lt;div&gt;user&lt;/div&gt;" style="shape=umlActor;verticalLabelPosition=bottom;verticalAlign=top;html=1;outlineConnect=0;" vertex="1" parent="1">
          <mxGeometry x="947" y="386" width="30" height="60" as="geometry" />
        </mxCell>
        <mxCell id="K7xf-FcPWN6fgvW8ipGl-4" value="Login" style="ellipse;whiteSpace=wrap;html=1;" vertex="1" parent="1">
          <mxGeometry x="736" y="362" width="120" height="50" as="geometry" />
        </mxCell>
        <mxCell id="K7xf-FcPWN6fgvW8ipGl-5" value="Create account" style="ellipse;whiteSpace=wrap;html=1;" vertex="1" parent="1">
          <mxGeometry x="736" y="438" width="120" height="50" as="geometry" />
        </mxCell>
      </root>
    </mxGraphModel>
  </diagram>
  <diagram id="hS6OOHNyojdDEeMrlZjZ" name="Страница — 2">
    <mxGraphModel dx="604" dy="600" grid="0" gridSize="10" guides="1" tooltips="1" connect="1" arrows="1" fold="1" page="0" pageScale="1" pageWidth="827" pageHeight="1169" math="0" shadow="0">
      <root>
        <mxCell id="0" />
        <mxCell id="1" parent="0" />
        <mxCell id="RMp0TQFrvn0mx9u3TPrS-6" value="&lt;p style=&quot;margin:0px;margin-top:4px;text-align:center;&quot;&gt;&lt;span style=&quot;background-color: initial; text-align: left; font-size: medium;&quot;&gt;&lt;span style=&quot;font-size: 12pt; font-family: Calibri, sans-serif;&quot;&gt;«&lt;/span&gt;&lt;/span&gt;&lt;span style=&quot;text-wrap: nowrap;&quot;&gt;service&lt;/span&gt;&lt;span style=&quot;background-color: initial; text-align: left; font-size: medium;&quot;&gt;&lt;span style=&quot;font-size: 12pt; font-family: Calibri, sans-serif;&quot;&gt;»&amp;nbsp;&lt;/span&gt;&lt;/span&gt;&lt;b&gt;Application manager&lt;/b&gt;&lt;br&gt;&lt;/p&gt;&lt;hr size=&quot;1&quot; style=&quot;border-style:solid;&quot;&gt;&lt;p style=&quot;margin: 0px 0px 0px 4px; font-size: 1px;&quot;&gt;&lt;br&gt;&lt;/p&gt;&lt;hr size=&quot;1&quot; style=&quot;border-style:solid;&quot;&gt;&lt;p style=&quot;margin:0px;margin-left:4px;&quot;&gt;+ getCurrentVersion(appID: integer): Version&amp;nbsp;&lt;/p&gt;&lt;p style=&quot;margin:0px;margin-left:4px;&quot;&gt;+ showVersions(&lt;span style=&quot;background-color: initial;&quot;&gt;appID: integer&lt;/span&gt;&lt;span style=&quot;background-color: initial;&quot;&gt;): [Version]&lt;/span&gt;&lt;/p&gt;&lt;p style=&quot;margin:0px;margin-left:4px;&quot;&gt;+ setCurrentVersion(appID: integer):&amp;nbsp;void&lt;/p&gt;&lt;p style=&quot;margin: 0px 0px 0px 4px;&quot;&gt;+ addApplication()&lt;span style=&quot;background-color: initial;&quot;&gt;: void&lt;/span&gt;&lt;/p&gt;&lt;p style=&quot;margin: 0px 0px 0px 4px;&quot;&gt;+ createBackup(&lt;span style=&quot;background-color: initial;&quot;&gt;appID: integer&lt;/span&gt;&lt;span style=&quot;background-color: initial;&quot;&gt;): void&lt;/span&gt;&lt;/p&gt;&lt;p style=&quot;margin: 0px 0px 0px 4px;&quot;&gt;+ deleteApplication(&lt;span style=&quot;background-color: initial;&quot;&gt;appID: integer&lt;/span&gt;&lt;span style=&quot;background-color: initial;&quot;&gt;)&lt;/span&gt;&lt;span style=&quot;background-color: initial;&quot;&gt;: void&lt;/span&gt;&lt;/p&gt;&lt;p style=&quot;margin: 0px 0px 0px 4px;&quot;&gt;+ updateApplication(&lt;span style=&quot;background-color: initial;&quot;&gt;appID: integer&lt;/span&gt;&lt;span style=&quot;background-color: initial;&quot;&gt;)&lt;/span&gt;&lt;span style=&quot;background-color: initial;&quot;&gt;: void&lt;/span&gt;&lt;/p&gt;&lt;p style=&quot;margin: 0px 0px 0px 4px;&quot;&gt;+ setAutoBackup(&lt;span style=&quot;background-color: initial;&quot;&gt;appID: integer&lt;/span&gt;&lt;span style=&quot;background-color: initial;&quot;&gt;)&lt;/span&gt;&lt;span style=&quot;background-color: initial;&quot;&gt;: void&lt;/span&gt;&lt;/p&gt;&lt;p style=&quot;margin:0px;margin-left:4px;&quot;&gt;&lt;br&gt;&lt;/p&gt;" style="verticalAlign=top;align=left;overflow=fill;html=1;whiteSpace=wrap;" parent="1" vertex="1">
          <mxGeometry x="649" y="500" width="261" height="171" as="geometry" />
        </mxCell>
        <mxCell id="RMp0TQFrvn0mx9u3TPrS-7" value="&lt;p style=&quot;margin:0px;margin-top:4px;text-align:center;&quot;&gt;&lt;span style=&quot;background-color: initial; text-align: left; font-size: medium;&quot;&gt;&lt;span style=&quot;font-size: 12pt; font-family: Calibri, sans-serif;&quot;&gt;«&lt;/span&gt;&lt;/span&gt;&lt;span style=&quot;background-color: initial; text-wrap: nowrap;&quot;&gt;entity&lt;/span&gt;&lt;span style=&quot;background-color: initial; text-align: left; font-size: medium;&quot;&gt;&lt;span style=&quot;font-size: 12pt; font-family: Calibri, sans-serif;&quot;&gt;»&amp;nbsp;&lt;/span&gt;&lt;/span&gt;&lt;b&gt;Application&lt;/b&gt;&lt;br&gt;&lt;/p&gt;&lt;hr size=&quot;1&quot; style=&quot;border-style:solid;&quot;&gt;&lt;p style=&quot;margin:0px;margin-left:4px;&quot;&gt;+ &lt;u&gt;id&lt;/u&gt;: integer&lt;/p&gt;&lt;p style=&quot;margin:0px;margin-left:4px;&quot;&gt;+ name&lt;span style=&quot;background-color: initial;&quot;&gt;: string&lt;/span&gt;&lt;/p&gt;&lt;p style=&quot;margin:0px;margin-left:4px;&quot;&gt;+ description&lt;span style=&quot;background-color: initial;&quot;&gt;: string&lt;/span&gt;&lt;/p&gt;&lt;p style=&quot;margin:0px;margin-left:4px;&quot;&gt;+ currentVersion: Version&lt;/p&gt;&lt;p style=&quot;margin:0px;margin-left:4px;&quot;&gt;+ status&lt;span style=&quot;background-color: initial;&quot;&gt;: string&lt;/span&gt;&lt;/p&gt;&lt;hr size=&quot;1&quot; style=&quot;border-style:solid;&quot;&gt;&lt;p style=&quot;margin:0px;margin-left:4px;&quot;&gt;+ activate(): void&amp;nbsp;&lt;/p&gt;&lt;p style=&quot;margin:0px;margin-left:4px;&quot;&gt;+ deactivate():&amp;nbsp;&lt;span style=&quot;background-color: initial;&quot;&gt;void&lt;/span&gt;&lt;/p&gt;" style="verticalAlign=top;align=left;overflow=fill;html=1;whiteSpace=wrap;" parent="1" vertex="1">
          <mxGeometry x="671" y="295" width="160" height="153" as="geometry" />
        </mxCell>
        <mxCell id="RMp0TQFrvn0mx9u3TPrS-10" style="edgeStyle=orthogonalEdgeStyle;rounded=0;orthogonalLoop=1;jettySize=auto;html=1;entryX=1;entryY=0.5;entryDx=0;entryDy=0;endArrow=classic;endFill=1;startArrow=none;startFill=0;" parent="1" source="RMp0TQFrvn0mx9u3TPrS-9" target="RMp0TQFrvn0mx9u3TPrS-6" edge="1">
          <mxGeometry relative="1" as="geometry" />
        </mxCell>
        <mxCell id="5Wkpwp4PgQb9dR9sb3xo-5" style="edgeStyle=orthogonalEdgeStyle;rounded=0;orthogonalLoop=1;jettySize=auto;html=1;entryX=0.5;entryY=1;entryDx=0;entryDy=0;" parent="1" source="RMp0TQFrvn0mx9u3TPrS-9" target="yB-l8bGfU-o4qLNN7Mlf-4" edge="1">
          <mxGeometry relative="1" as="geometry">
            <Array as="points">
              <mxPoint x="1031" y="471" />
              <mxPoint x="1295" y="471" />
            </Array>
          </mxGeometry>
        </mxCell>
        <mxCell id="RMp0TQFrvn0mx9u3TPrS-9" value="&lt;span style=&quot;font-size: medium;&quot;&gt;&lt;/span&gt;&lt;p style=&quot;margin:0px;margin-top:4px;text-align:center;&quot;&gt;&lt;span style=&quot;background-color: initial; text-align: left; font-size: medium;&quot;&gt;&lt;span style=&quot;font-size: 12pt; font-family: Calibri, sans-serif;&quot;&gt;«&lt;/span&gt;&lt;/span&gt;&lt;span style=&quot;text-wrap: nowrap; background-color: initial;&quot;&gt;root&lt;/span&gt;&lt;span style=&quot;background-color: initial; text-align: left; font-size: medium;&quot;&gt;&lt;span style=&quot;font-size: 12pt; font-family: Calibri, sans-serif;&quot;&gt;»&amp;nbsp;&lt;/span&gt;&lt;/span&gt;&lt;span style=&quot;background-color: initial;&quot;&gt;&lt;b&gt;Account&lt;/b&gt;&lt;/span&gt;&lt;/p&gt;&lt;hr size=&quot;1&quot; style=&quot;border-style:solid;&quot;&gt;&lt;p style=&quot;margin:0px;margin-left:4px;&quot;&gt;+&amp;nbsp;&lt;u&gt;id&lt;/u&gt;: integer&lt;br&gt;&lt;/p&gt;&lt;p style=&quot;margin:0px;margin-left:4px;&quot;&gt;+ name: string&lt;/p&gt;&lt;p style=&quot;margin:0px;margin-left:4px;&quot;&gt;+ password&lt;span style=&quot;background-color: initial;&quot;&gt;: string&lt;/span&gt;&lt;/p&gt;&lt;p style=&quot;margin:0px;margin-left:4px;&quot;&gt;+ role&lt;span style=&quot;background-color: initial;&quot;&gt;:&amp;nbsp;&lt;/span&gt;&lt;span style=&quot;text-align: center; background-color: initial;&quot;&gt;RoleUser&lt;/span&gt;&lt;/p&gt;&lt;hr size=&quot;1&quot; style=&quot;border-style:solid;&quot;&gt;&lt;p style=&quot;margin:0px;margin-left:4px;&quot;&gt;+ authorize(): void&amp;nbsp;&lt;/p&gt;&lt;p style=&quot;margin:0px;margin-left:4px;&quot;&gt;+ deleteAccount()&lt;span style=&quot;background-color: initial;&quot;&gt;: void&lt;/span&gt;&lt;/p&gt;&lt;p style=&quot;margin:0px;margin-left:4px;&quot;&gt;+ addUser(): void&lt;/p&gt;" style="verticalAlign=top;align=left;overflow=fill;html=1;whiteSpace=wrap;" parent="1" vertex="1">
          <mxGeometry x="951" y="524" width="160" height="153" as="geometry" />
        </mxCell>
        <mxCell id="RMp0TQFrvn0mx9u3TPrS-15" value="1" style="text;html=1;align=center;verticalAlign=middle;resizable=0;points=[];autosize=1;strokeColor=none;fillColor=none;" parent="1" vertex="1">
          <mxGeometry x="1156" y="372" width="30" height="30" as="geometry" />
        </mxCell>
        <mxCell id="RMp0TQFrvn0mx9u3TPrS-16" value="0..*" style="text;html=1;align=center;verticalAlign=middle;resizable=0;points=[];autosize=1;strokeColor=none;fillColor=none;" parent="1" vertex="1">
          <mxGeometry x="1076" y="349" width="40" height="30" as="geometry" />
        </mxCell>
        <mxCell id="RMp0TQFrvn0mx9u3TPrS-18" value="1" style="text;html=1;align=center;verticalAlign=middle;resizable=0;points=[];autosize=1;strokeColor=none;fillColor=none;" parent="1" vertex="1">
          <mxGeometry x="773" y="478" width="30" height="30" as="geometry" />
        </mxCell>
        <mxCell id="RMp0TQFrvn0mx9u3TPrS-46" value="&lt;p style=&quot;margin:0px;margin-top:4px;text-align:center;&quot;&gt;&lt;span style=&quot;background-color: initial; text-align: left; font-size: medium;&quot;&gt;&lt;span style=&quot;font-size: 12pt; font-family: Calibri, sans-serif;&quot;&gt;«&lt;/span&gt;&lt;/span&gt;&lt;span style=&quot;text-wrap: nowrap;&quot;&gt;value&lt;/span&gt;&lt;span style=&quot;background-color: initial; text-align: left; font-size: medium;&quot;&gt;&lt;span style=&quot;font-size: 12pt; font-family: Calibri, sans-serif;&quot;&gt;»&amp;nbsp;&lt;/span&gt;&lt;/span&gt;&lt;b&gt;RoleUser&lt;/b&gt;&lt;/p&gt;&lt;hr size=&quot;1&quot; style=&quot;border-style:solid;&quot;&gt;&lt;p style=&quot;margin:0px;margin-left:4px;&quot;&gt;+ name: string&lt;/p&gt;&lt;p style=&quot;margin:0px;margin-left:4px;&quot;&gt;+ password&lt;span style=&quot;background-color: initial;&quot;&gt;: string&lt;/span&gt;&lt;/p&gt;&lt;p style=&quot;margin:0px;margin-left:4px;&quot;&gt;+ role&lt;span style=&quot;background-color: initial;&quot;&gt;: string[1..*]&lt;/span&gt;&lt;/p&gt;&lt;hr size=&quot;1&quot; style=&quot;border-style:solid;&quot;&gt;&lt;p style=&quot;margin:0px;margin-left:4px;&quot;&gt;&lt;br&gt;&lt;/p&gt;&lt;p style=&quot;margin:0px;margin-left:4px;&quot;&gt;&lt;br&gt;&lt;/p&gt;" style="verticalAlign=top;align=left;overflow=fill;html=1;whiteSpace=wrap;" parent="1" vertex="1">
          <mxGeometry x="1196" y="598" width="160" height="90" as="geometry" />
        </mxCell>
        <mxCell id="RMp0TQFrvn0mx9u3TPrS-56" value="0..*" style="text;html=1;align=center;verticalAlign=middle;resizable=0;points=[];autosize=1;strokeColor=none;fillColor=none;" parent="1" vertex="1">
          <mxGeometry x="719" y="444" width="40" height="30" as="geometry" />
        </mxCell>
        <mxCell id="yB-l8bGfU-o4qLNN7Mlf-1" value="&lt;p style=&quot;margin:0px;margin-top:4px;text-align:center;&quot;&gt;&lt;span style=&quot;background-color: initial; text-align: left; font-size: medium;&quot;&gt;&lt;span style=&quot;font-size: 12pt; font-family: Calibri, sans-serif;&quot;&gt;«&lt;/span&gt;&lt;/span&gt;&lt;span style=&quot;text-wrap: nowrap;&quot;&gt;service&lt;/span&gt;&lt;span style=&quot;background-color: initial; text-align: left; font-size: medium;&quot;&gt;&lt;span style=&quot;font-size: 12pt; font-family: Calibri, sans-serif;&quot;&gt;»&amp;nbsp;&lt;/span&gt;&lt;/span&gt;&lt;b&gt;Kubernetes manager&lt;/b&gt;&lt;br&gt;&lt;/p&gt;&lt;hr size=&quot;1&quot; style=&quot;border-style:solid;&quot;&gt;&lt;p style=&quot;margin: 0px 0px 0px 4px; font-size: 1px;&quot;&gt;&lt;br&gt;&lt;/p&gt;&lt;hr size=&quot;1&quot; style=&quot;border-style:solid;&quot;&gt;&lt;p style=&quot;margin:0px;margin-left:4px;&quot;&gt;+ applicationControl(): void&amp;nbsp;&lt;/p&gt;&lt;p style=&quot;margin:0px;margin-left:4px;&quot;&gt;+ setKubernetesSetting(): void&lt;/p&gt;&lt;p style=&quot;margin:0px;margin-left:4px;&quot;&gt;&lt;br&gt;&lt;/p&gt;" style="verticalAlign=top;align=left;overflow=fill;html=1;whiteSpace=wrap;" parent="1" vertex="1">
          <mxGeometry x="1182" y="486" width="200" height="90" as="geometry" />
        </mxCell>
        <mxCell id="yB-l8bGfU-o4qLNN7Mlf-3" style="edgeStyle=orthogonalEdgeStyle;rounded=0;orthogonalLoop=1;jettySize=auto;html=1;entryX=0;entryY=0.799;entryDx=0;entryDy=0;entryPerimeter=0;" parent="1" source="RMp0TQFrvn0mx9u3TPrS-9" target="yB-l8bGfU-o4qLNN7Mlf-1" edge="1">
          <mxGeometry relative="1" as="geometry" />
        </mxCell>
        <mxCell id="yB-l8bGfU-o4qLNN7Mlf-9" style="edgeStyle=orthogonalEdgeStyle;rounded=0;orthogonalLoop=1;jettySize=auto;html=1;entryX=1;entryY=0.5;entryDx=0;entryDy=0;" parent="1" source="yB-l8bGfU-o4qLNN7Mlf-4" target="yB-l8bGfU-o4qLNN7Mlf-8" edge="1">
          <mxGeometry relative="1" as="geometry" />
        </mxCell>
        <mxCell id="yB-l8bGfU-o4qLNN7Mlf-4" value="&lt;p style=&quot;margin:0px;margin-top:4px;text-align:center;&quot;&gt;&lt;span style=&quot;background-color: initial; text-align: left; font-size: medium;&quot;&gt;&lt;span style=&quot;font-size: 12pt; font-family: Calibri, sans-serif;&quot;&gt;«&lt;/span&gt;&lt;/span&gt;&lt;span style=&quot;text-wrap: nowrap;&quot;&gt;service&lt;/span&gt;&lt;span style=&quot;background-color: initial; text-align: left;&quot;&gt;&lt;span style=&quot;font-family: Calibri, sans-serif;&quot;&gt;&lt;span style=&quot;font-size: 12pt;&quot;&gt;» &lt;/span&gt;&lt;b style=&quot;&quot;&gt;&lt;font style=&quot;font-size: 12px;&quot;&gt;Version manager&lt;/font&gt;&lt;/b&gt;&lt;/span&gt;&lt;/span&gt;&lt;br&gt;&lt;/p&gt;&lt;hr size=&quot;1&quot; style=&quot;border-style:solid;&quot;&gt;&lt;p style=&quot;margin: 0px 0px 0px 4px; font-size: 1px;&quot;&gt;&lt;br&gt;&lt;/p&gt;&lt;hr size=&quot;1&quot; style=&quot;border-style:solid;&quot;&gt;&lt;p style=&quot;margin:0px;margin-left:4px;&quot;&gt;&lt;span style=&quot;background-color: initial;&quot;&gt;+ getById&lt;/span&gt;&lt;span style=&quot;background-color: initial;&quot;&gt;(id&lt;/span&gt;&lt;span style=&quot;background-color: initial;&quot;&gt;: integer&lt;/span&gt;&lt;span style=&quot;background-color: initial;&quot;&gt;): Version&lt;/span&gt;&lt;/p&gt;&lt;p style=&quot;margin:0px;margin-left:4px;&quot;&gt;&lt;span style=&quot;background-color: initial;&quot;&gt;+ getByApp(appID: integer): Version&lt;/span&gt;&lt;/p&gt;&lt;p style=&quot;margin:0px;margin-left:4px;&quot;&gt;+ getAllVersions&lt;span style=&quot;background-color: initial;&quot;&gt;(): [Version]&lt;/span&gt;&lt;span style=&quot;background-color: initial;&quot;&gt;&amp;nbsp;&lt;/span&gt;&lt;/p&gt;&lt;p style=&quot;margin: 0px 0px 0px 4px;&quot;&gt;+ restoreVersion(versionID: integer): void&lt;/p&gt;&lt;p style=&quot;margin: 0px 0px 0px 4px;&quot;&gt;+ deleteVersion(versionID&lt;span style=&quot;background-color: initial;&quot;&gt;: integer&lt;/span&gt;&lt;span style=&quot;background-color: initial;&quot;&gt;)&lt;/span&gt;&lt;span style=&quot;background-color: initial;&quot;&gt;: void&lt;/span&gt;&lt;br&gt;&lt;/p&gt;" style="verticalAlign=top;align=left;overflow=fill;html=1;whiteSpace=wrap;" parent="1" vertex="1">
          <mxGeometry x="1177" y="305" width="236" height="130" as="geometry" />
        </mxCell>
        <mxCell id="yB-l8bGfU-o4qLNN7Mlf-7" style="edgeStyle=orthogonalEdgeStyle;rounded=0;orthogonalLoop=1;jettySize=auto;html=1;entryX=0.5;entryY=1;entryDx=0;entryDy=0;" parent="1" source="RMp0TQFrvn0mx9u3TPrS-6" target="RMp0TQFrvn0mx9u3TPrS-7" edge="1">
          <mxGeometry relative="1" as="geometry" />
        </mxCell>
        <mxCell id="yB-l8bGfU-o4qLNN7Mlf-8" value="&lt;p style=&quot;margin:0px;margin-top:4px;text-align:center;&quot;&gt;&lt;span style=&quot;background-color: initial; text-align: left; font-size: medium;&quot;&gt;&lt;span style=&quot;font-size: 12pt; font-family: Calibri, sans-serif;&quot;&gt;«&lt;/span&gt;&lt;/span&gt;&lt;span style=&quot;text-wrap: nowrap;&quot;&gt;entity&lt;/span&gt;&lt;span style=&quot;background-color: initial; text-align: left; font-size: medium;&quot;&gt;&lt;span style=&quot;font-size: 12pt; font-family: Calibri, sans-serif;&quot;&gt;»&amp;nbsp;&lt;/span&gt;&lt;/span&gt;&lt;b&gt;Version&lt;/b&gt;&lt;br&gt;&lt;/p&gt;&lt;hr size=&quot;1&quot; style=&quot;border-style:solid;&quot;&gt;&lt;p style=&quot;margin:0px;margin-left:4px;&quot;&gt;+&amp;nbsp;&lt;u&gt;id&lt;/u&gt;: integer&lt;br&gt;&lt;/p&gt;&lt;p style=&quot;margin:0px;margin-left:4px;&quot;&gt;+ name:&amp;nbsp;&lt;span style=&quot;background-color: initial;&quot;&gt;string&lt;/span&gt;&lt;/p&gt;&lt;p style=&quot;margin:0px;margin-left:4px;&quot;&gt;&lt;span style=&quot;background-color: initial;&quot;&gt;+&amp;nbsp;&lt;/span&gt;appName:&amp;nbsp;&lt;span style=&quot;background-color: initial;&quot;&gt;string&lt;/span&gt;&lt;/p&gt;&lt;p style=&quot;margin:0px;margin-left:4px;&quot;&gt;+ date: Date&lt;/p&gt;&lt;p style=&quot;margin:0px;margin-left:4px;&quot;&gt;+ appID: integer&lt;/p&gt;&lt;hr size=&quot;1&quot; style=&quot;border-style:solid;&quot;&gt;&lt;p style=&quot;margin:0px;margin-left:4px;&quot;&gt;+ changeName(): void&lt;/p&gt;&lt;p style=&quot;margin:0px;margin-left:4px;&quot;&gt;+ showInfo(): void&lt;/p&gt;&lt;p style=&quot;margin:0px;margin-left:4px;&quot;&gt;&lt;br&gt;&lt;/p&gt;" style="verticalAlign=top;align=left;overflow=fill;html=1;whiteSpace=wrap;" parent="1" vertex="1">
          <mxGeometry x="919" y="301" width="163" height="152" as="geometry" />
        </mxCell>
        <mxCell id="yB-l8bGfU-o4qLNN7Mlf-12" value="1..*" style="text;html=1;align=center;verticalAlign=middle;resizable=0;points=[];autosize=1;strokeColor=none;fillColor=none;" parent="1" vertex="1">
          <mxGeometry x="888" y="351" width="36" height="26" as="geometry" />
        </mxCell>
        <mxCell id="yB-l8bGfU-o4qLNN7Mlf-13" value="1" style="text;html=1;align=center;verticalAlign=middle;resizable=0;points=[];autosize=1;strokeColor=none;fillColor=none;" parent="1" vertex="1">
          <mxGeometry x="829" y="369" width="25" height="26" as="geometry" />
        </mxCell>
        <mxCell id="5Wkpwp4PgQb9dR9sb3xo-1" style="edgeStyle=orthogonalEdgeStyle;rounded=0;orthogonalLoop=1;jettySize=auto;html=1;entryX=0.988;entryY=0.85;entryDx=0;entryDy=0;entryPerimeter=0;endArrow=none;endFill=0;" parent="1" source="RMp0TQFrvn0mx9u3TPrS-46" target="RMp0TQFrvn0mx9u3TPrS-9" edge="1">
          <mxGeometry relative="1" as="geometry" />
        </mxCell>
        <mxCell id="5Wkpwp4PgQb9dR9sb3xo-2" value="1" style="text;html=1;align=center;verticalAlign=middle;resizable=0;points=[];autosize=1;strokeColor=none;fillColor=none;" parent="1" vertex="1">
          <mxGeometry x="1173" y="621" width="25" height="26" as="geometry" />
        </mxCell>
        <mxCell id="5Wkpwp4PgQb9dR9sb3xo-3" value="0..*" style="text;html=1;align=center;verticalAlign=middle;resizable=0;points=[];autosize=1;strokeColor=none;fillColor=none;" parent="1" vertex="1">
          <mxGeometry x="1105" y="648" width="40" height="30" as="geometry" />
        </mxCell>
        <mxCell id="5Wkpwp4PgQb9dR9sb3xo-7" style="edgeStyle=orthogonalEdgeStyle;rounded=0;orthogonalLoop=1;jettySize=auto;html=1;endArrow=none;endFill=0;" parent="1" source="RMp0TQFrvn0mx9u3TPrS-7" edge="1">
          <mxGeometry relative="1" as="geometry">
            <mxPoint x="923" y="372" as="targetPoint" />
          </mxGeometry>
        </mxCell>
      </root>
    </mxGraphModel>
  </diagram>
</mxfile>
